<svg xmlns="http://www.w3.org/2000/svg" viewBox="0 0 11.17 11.17"><defs><style>.cls-1{fill:#30a9e0;}.cls-2{fill:#30aae1;}</style></defs><g id="Layer_2" data-name="Layer 2"><g id="Layer_1-2" data-name="Layer 1"><path class="cls-1" d="M4,7.27s0,0-.07,0l-.58.13c-.05,0-.05,0,0,.06a3,3,0,0,0,.94.75.93.93,0,0,0,.25.1v0A3.16,3.16,0,0,1,4,7.27Z"/><path class="cls-1" d="M5.33,7.12c-.3,0-.6,0-.89,0,0,0,0,0,0,0a2.76,2.76,0,0,0,.46.84,1.16,1.16,0,0,0,.47.35s0,0,0-.05V7.19C5.39,7.13,5.38,7.11,5.33,7.12Z"/><path class="cls-1" d="M7.15,3.88s0,0,.06,0l.18,0,.45-.1a2.92,2.92,0,0,0-1.19-.89v0A3.12,3.12,0,0,1,7.15,3.88Z"/><path class="cls-1" d="M5.34,5.77H4.21s-.06,0-.06.07a4.74,4.74,0,0,0,.13.92s0,0,0,0l.19,0,.81,0s.06,0,.06-.06V5.83S5.38,5.77,5.34,5.77Z"/><path class="cls-1" d="M5.36,4.42a9.1,9.1,0,0,1-1-.08,0,0,0,0,0,0,0,6,6,0,0,0-.13,1s0,.06.06.06H5.34s0,0,0,0v-.9A0,0,0,0,0,5.36,4.42Z"/><path class="cls-1" d="M2.75,5.39h1s.07,0,.07-.07a3.4,3.4,0,0,1,0-.45,5.07,5.07,0,0,1,.09-.54s0,0,0-.06a4.69,4.69,0,0,1-.72-.17s0,0-.05,0A3,3,0,0,0,2.7,5.35S2.72,5.39,2.75,5.39Z"/><path class="cls-1" d="M4.46,4C4.75,4,5,4,5.34,4c0,0,0,0,0-.06V2.77s0,0,0,0A.93.93,0,0,0,5,3a2.51,2.51,0,0,0-.54.92C4.39,4,4.43,4,4.46,4Z"/><path class="cls-1" d="M4,3.9s0,0,0,0a3.9,3.9,0,0,1,.2-.47,2.8,2.8,0,0,1,.3-.49,2.77,2.77,0,0,0-1.17.85v0Z"/><path class="cls-1" d="M3.89,6.8a5.25,5.25,0,0,1-.12-1,.05.05,0,0,0-.06-.06c-.16,0-.32,0-.48,0s-.32,0-.48,0,0,0,0,.06l0,.21a3,3,0,0,0,.33,1s0,0,.06,0a4.67,4.67,0,0,1,.74-.17S3.9,6.84,3.89,6.8Z"/><path class="cls-1" d="M8.42,5.77c-.32,0-.64,0-1,0,0,0,0,0,0,.05V6a5.72,5.72,0,0,1-.12.83s0,.06,0,.06A6.25,6.25,0,0,1,8,7s0,0,.05,0a2.82,2.82,0,0,0,.38-1.2S8.47,5.77,8.42,5.77Z"/><path class="cls-1" d="M7.31,4.29s0,0,0,0a5.58,5.58,0,0,1,.12,1s0,.06.07.06H8.4c.06,0,.07,0,.07-.06A3.07,3.07,0,0,0,8.1,4.15s0,0-.07,0A5.77,5.77,0,0,1,7.31,4.29Z"/><path class="cls-2" d="M5.58,0a5.59,5.59,0,1,0,5.59,5.58A5.58,5.58,0,0,0,5.58,0ZM8.8,6.2a3.11,3.11,0,0,1-1.22,2,3.14,3.14,0,0,1-1.42.63l-.36,0H5.31A2.11,2.11,0,0,1,5,8.8,3.19,3.19,0,0,1,3,7.59a3,3,0,0,1-.64-1.44c0-.11,0-.23,0-.35V5.37a2,2,0,0,0,0-.24A3.13,3.13,0,0,1,3.1,3.45,3.2,3.2,0,0,1,6,2.34a3,3,0,0,1,1.68.76A3.18,3.18,0,0,1,8.8,6.2Z"/><path class="cls-1" d="M6.81,4.35c-.32,0-.65.06-1,.07,0,0,0,0,0,0v.86s0,.06,0,.06H7c.06,0,.07,0,.07-.07a7.09,7.09,0,0,0-.12-.91C6.89,4.35,6.86,4.35,6.81,4.35Z"/><path class="cls-1" d="M7.15,7.29c-.06.16-.13.32-.2.48a5.19,5.19,0,0,1-.31.5,2.76,2.76,0,0,0,1.2-.88,5.5,5.5,0,0,0-.65-.15S7.15,7.27,7.15,7.29Z"/><path class="cls-1" d="M5.83,4H6.1l.67,0A2.45,2.45,0,0,0,6.2,3a1,1,0,0,0-.38-.25s0,0,0,0V4C5.78,4,5.79,4,5.83,4Z"/><path class="cls-1" d="M5.84,6.73a5.49,5.49,0,0,1,.58,0l.41,0s0,0,.06,0A6.07,6.07,0,0,0,7,5.83S7,5.77,7,5.77H5.84s-.06,0-.06.06v.84S5.79,6.73,5.84,6.73Z"/><path class="cls-1" d="M6.74,7.18l-.17,0-.74,0s0,0,0,0V8.42l.11,0L6,8.31a2.16,2.16,0,0,0,.74-1.09S6.76,7.18,6.74,7.18Z"/></g></g></svg>