<svg xmlns="http://www.w3.org/2000/svg" viewBox="0 0 11.17 11.17"><defs><style>.cls-1{fill:#30aae1;}</style></defs><g id="Layer_2" data-name="Layer 2"><g id="Layer_1-2" data-name="Layer 1"><path class="cls-1" d="M5.58,0a5.59,5.59,0,1,0,5.59,5.58A5.58,5.58,0,0,0,5.58,0ZM8,7.69a2.14,2.14,0,0,1-.93.6,2.1,2.1,0,0,1-1.55-.23A5.27,5.27,0,0,1,4.1,6.83a4.94,4.94,0,0,1-.93-1.48A2.48,2.48,0,0,1,3,4.5a1.74,1.74,0,0,1,.67-1.4l.24-.2a.35.35,0,0,1,.47,0,1,1,0,0,1,.17.18A6.71,6.71,0,0,1,5,3.86a.5.5,0,0,1-.16.66l-.27.23a.45.45,0,0,0-.19.58,1.89,1.89,0,0,0,.11.25,4.09,4.09,0,0,0,1,1.18l.26.13a.4.4,0,0,0,.47-.11l.31-.28a.52.52,0,0,1,.63-.08,2.57,2.57,0,0,1,.85.72A.36.36,0,0,1,8,7.69Z"/></g></g></svg>