<svg xmlns="http://www.w3.org/2000/svg" viewBox="0 0 11.17 11.17"><defs><style>.cls-1{fill:#30aae1;}.cls-2{fill:#fff;}</style></defs><g id="Layer_2" data-name="Layer 2"><g id="Layer_1-2" data-name="Layer 1"><path class="cls-1" d="M5.58,0a5.59,5.59,0,1,0,5.59,5.58A5.58,5.58,0,0,0,5.58,0Z"/><path class="cls-2" d="M6.62,8l.15-.14a1.67,1.67,0,0,0,.5-1.19,1.71,1.71,0,0,0-.09-.55l.26.06c.11,0,.12,0,.13.12.1.48.2,1,.29,1.47a.16.16,0,0,1,0,.16A.22.22,0,0,1,7.66,8ZM3.52,8a.19.19,0,0,1-.21-.22,1,1,0,0,1,0-.25l.24-1.21c0-.1.05-.12.14-.14L4,6.07a1.71,1.71,0,0,0-.09.55A1.67,1.67,0,0,0,4.55,8ZM5,5.05a1.34,1.34,0,0,0,0-.2V4.74a2.15,2.15,0,0,1,.61-.09,2.08,2.08,0,0,1,.6.09v.31a1.47,1.47,0,0,0-.59-.11h0A1.73,1.73,0,0,0,5,5.05Z"/><path class="cls-2" d="M5.59,4.15a3,3,0,0,0-1.09.22s0,0,0,.09l0,.43A.65.65,0,0,1,4,5.57l-.36.07a.63.63,0,0,0-.52.53L2.89,7.26a3.1,3.1,0,0,0-.08.42.7.7,0,0,0,.71.77H7.66a.69.69,0,0,0,.69-.82c-.09-.5-.19-1-.29-1.49a.62.62,0,0,0-.51-.5L7.2,5.57a.64.64,0,0,1-.52-.7c0-.15,0-.29,0-.44a.05.05,0,0,0,0,0L6.46,4.3a2.65,2.65,0,0,0-.87-.15Zm0,3.66h0a1.19,1.19,0,0,1,0-2.37h0a1.19,1.19,0,0,1,0,2.37Z"/><path class="cls-2" d="M8.42,5.28s0-.06,0-.07l-.87-.47s.07-.23.08-.28a.64.64,0,0,0-.31-.75,2.28,2.28,0,0,0-.6-.23,5,5,0,0,0-1.1-.14,4.23,4.23,0,0,0-.79.08l-.6.14a2.35,2.35,0,0,0-.29.12.67.67,0,0,0-.35.69,1.27,1.27,0,0,0,.06.28l0,.09,0,0L3.22,5l-.54.24a1,1,0,0,1-.21-.48.79.79,0,0,1,.2-.68A1.75,1.75,0,0,1,3.5,3.5a6.14,6.14,0,0,1,1.94-.28h.24a7,7,0,0,1,1.64.18,2.37,2.37,0,0,1,.86.36,1.12,1.12,0,0,1,.52.78A.8.8,0,0,1,8.6,5,.94.94,0,0,1,8.42,5.28Z"/><path class="cls-2" d="M3.05,4.38a.13.13,0,0,1,0,.06v0L3,4.53H3a.38.38,0,0,1,.09-.16m5.07,0a.34.34,0,0,1,.07.15l-.08,0s0-.07,0-.1M5.68,2.72H5.44A6.42,6.42,0,0,0,3.35,3a2.3,2.3,0,0,0-1.07.71A1.29,1.29,0,0,0,2,4.82a1.41,1.41,0,0,0,.42.83.33.33,0,0,0,.23.11.25.25,0,0,0,.14,0c.23-.09.45-.19.67-.3s.4-.22.6-.33a.25.25,0,0,0,.13-.23,1,1,0,0,0-.08-.38,1,1,0,0,1,0-.18.16.16,0,0,1,.09-.17l.17-.08.58-.14a4.15,4.15,0,0,1,.7-.07A3.57,3.57,0,0,1,6.51,4,1.87,1.87,0,0,1,7,4.13a.17.17,0,0,1,.09.21c0,.09-.06.19-.08.28a1,1,0,0,0,0,.24.22.22,0,0,0,.13.24l1,.55a.92.92,0,0,0,.23.09H8.5a.39.39,0,0,0,.3-.14,1.78,1.78,0,0,0,.25-.36,1.21,1.21,0,0,0,.14-.79,1.62,1.62,0,0,0-.73-1.12,3.14,3.14,0,0,0-1-.42,7,7,0,0,0-1.76-.2Z"/><path class="cls-2" d="M5.58,7a.39.39,0,0,1-.38-.38A.38.38,0,1,1,5.58,7Z"/><path class="cls-2" d="M5.58,5.74h0a.88.88,0,0,0,0,1.76h0a.88.88,0,0,0,0-1.76Z"/></g></g></svg>