<svg xmlns="http://www.w3.org/2000/svg" viewBox="0 0 14.68 14.68"><defs><style>.cls-1{fill:#349933;}.cls-2{fill:#fff;}</style></defs><g id="Layer_2" data-name="Layer 2"><g id="Layer_1-2" data-name="Layer 1"><g id="circle72"><circle class="cls-1" cx="7.34" cy="7.34" r="7.34"/></g><path class="cls-2" d="M7.34,11.33a4,4,0,0,1-2-.53l-1.57.53.32-1.65a3.93,3.93,0,0,1-.77-2.34,4,4,0,1,1,4,4ZM5.41,10.14l.12.08A3.39,3.39,0,1,0,3.92,7.34a3.34,3.34,0,0,0,.73,2.09l.08.11-.18.9Z"/><path class="cls-2" d="M5.31,5.81s.24-.41.43-.44.44,0,.51.1.36.85.36.85a.29.29,0,0,1,0,.25,3.06,3.06,0,0,1-.25.3.2.2,0,0,0,0,.25,4.48,4.48,0,0,0,.56.69,3,3,0,0,0,.92.54.19.19,0,0,0,.14,0c.06-.06.36-.43.36-.43a.2.2,0,0,1,.25,0l.85.41a.15.15,0,0,1,.08.15,1,1,0,0,1-.15.52,1.21,1.21,0,0,1-.84.41,3.69,3.69,0,0,1-2-.92A4,4,0,0,1,5.27,6.77C5.15,6.25,5.17,6,5.31,5.81Z"/></g></g></svg>