<svg xmlns="http://www.w3.org/2000/svg" viewBox="0 0 11.17 11.17"><defs><style>.cls-1{fill:#30a9e0;}.cls-2{fill:#30aae1;}</style></defs><g id="Layer_2" data-name="Layer 2"><g id="Layer_1-2" data-name="Layer 1"><path class="cls-1" d="M5.63,3.64A1.13,1.13,0,0,0,4.48,4.73,1.12,1.12,0,0,0,5.56,5.86a1.11,1.11,0,0,0,.07-2.22Z"/><path class="cls-2" d="M5.58,0a5.59,5.59,0,1,0,5.59,5.58A5.58,5.58,0,0,0,5.58,0ZM7.91,5.73a3.19,3.19,0,0,1-.3.58c-.66,1-1.33,1.89-2,2.86-.69-1-1.39-1.92-2-2.9a2.46,2.46,0,0,1-.12-2.78,2.52,2.52,0,0,1,3.28-1A2.49,2.49,0,0,1,7.91,5.73Z"/></g></g></svg>