<svg xmlns="http://www.w3.org/2000/svg" viewBox="0 0 14.68 14.68"><defs><style>.cls-1{fill:#007bb5;}.cls-2{fill:#fff;}</style></defs><g id="Layer_2" data-name="Layer 2"><g id="Layer_1-2" data-name="Layer 1"><g id="circle72"><circle class="cls-1" cx="7.34" cy="7.34" r="7.34"/></g><g id="text18"><path class="cls-2" d="M3.13,4.37a.87.87,0,0,1,.94-.84A.85.85,0,0,1,5,4.34a.87.87,0,0,1-.94.87A.86.86,0,0,1,3.13,4.37Zm.18,1.57H4.82v5.21H3.31Z"/><path class="cls-2" d="M11.55,8.17v3H10V8.4c0-.84-.39-1.23-1-1.23s-1.25.45-1.25,1.4v2.58H6.23V5.94H7.67v.61a2.31,2.31,0,0,1,1.72-.69A2,2,0,0,1,11.55,8.17Z"/></g></g></g></svg>