<svg xmlns="http://www.w3.org/2000/svg" viewBox="0 0 11.17 11.17"><defs><style>.cls-1{fill:#30aae1;}</style></defs><g id="Layer_2" data-name="Layer 2"><g id="Layer_1-2" data-name="Layer 1"><path class="cls-1" d="M11,4.3A5.58,5.58,0,1,0,6.87,11,5.59,5.59,0,0,0,11,4.3Zm-7.8-.75H8a2.07,2.07,0,0,1,.22,0,.47.47,0,0,1-.09.1L5.78,6c-.15.15-.24.15-.39,0L3.08,3.69a.91.91,0,0,1-.1-.1A1.32,1.32,0,0,1,3.22,3.55ZM2.7,7.11c0-1,0-2,0-3a1.33,1.33,0,0,1,0-.21L4.48,5.59,2.73,7.32A1.52,1.52,0,0,1,2.7,7.11ZM8,7.62H3.22L3,7.59,4.76,5.86l.42.42a.55.55,0,0,0,.81,0l.43-.43C7,6.42,7.58,7,8.18,7.59Zm.53-.52a1.12,1.12,0,0,1,0,.21L6.7,5.59,8.44,3.86a1.3,1.3,0,0,1,0,.21Z"/></g></g></svg>