<svg xmlns="http://www.w3.org/2000/svg" viewBox="0 0 14.68 14.68"><defs><style>.cls-1{fill:#1da1f2;}.cls-2{fill:#fff;fill-rule:evenodd;}</style></defs><g id="Layer_2" data-name="Layer 2"><g id="Layer_1-2" data-name="Layer 1"><g id="circle72"><circle class="cls-1" cx="7.34" cy="7.34" r="7.34"/></g><g id="path74"><path class="cls-2" d="M7.44,6.17a2.35,2.35,0,0,1,.06-.64A1.72,1.72,0,0,1,8.78,4.32,2,2,0,0,1,10,4.44a2.4,2.4,0,0,1,.63.55,2.45,2.45,0,0,0,.87-.15l.28-.1v0a1.87,1.87,0,0,1-.86.81,3.62,3.62,0,0,0,.75-.06,2,2,0,0,1,.26-.07h0a2.71,2.71,0,0,1-1,.77,5.59,5.59,0,0,1-.58,1.9,4.81,4.81,0,0,1-2.41,2.26,7,7,0,0,1-1.25.34,5.17,5.17,0,0,1-3.25-.68c-.15-.1-.62-.33-.67-.48h.12a2.34,2.34,0,0,0,.73.1A3.79,3.79,0,0,0,5.4,9.2h0A1.74,1.74,0,0,1,4,7.78H4a1.21,1.21,0,0,0,.7.06.8.8,0,0,1-.32-.16A1.66,1.66,0,0,1,3.6,6c.15.06.51.35.74.3h0L4,5.93A1.82,1.82,0,0,1,3.85,4.4c.07-.2.2-.34.26-.51h0A4.85,4.85,0,0,0,7.44,6.17Z"/></g></g></g></svg>