<svg xmlns="http://www.w3.org/2000/svg" xmlns:xlink="http://www.w3.org/1999/xlink" viewBox="0 0 14.68 14.68"><defs><style>.cls-1{fill:url(#linear-gradient);}.cls-2{fill:#fff;}</style><linearGradient id="linear-gradient" x1="7.34" y1="16.18" x2="7.34" y2="-6.95" gradientUnits="userSpaceOnUse"><stop offset="0" stop-color="#fed172"/><stop offset="0.24" stop-color="#eb6f3d"/><stop offset="0.47" stop-color="#9b389c"/><stop offset="0.49" stop-color="#9439a1"/><stop offset="0.57" stop-color="#7f3cb0"/><stop offset="0.65" stop-color="#733db9"/><stop offset="0.72" stop-color="#6f3ebc"/><stop offset="0.75" stop-color="#634cc4"/><stop offset="0.79" stop-color="#5957ca"/><stop offset="0.85" stop-color="#545ece"/><stop offset="1" stop-color="#5260cf"/></linearGradient></defs><g id="Layer_2" data-name="Layer 2"><g id="Layer_1-2" data-name="Layer 1"><g id="circle72"><circle class="cls-1" cx="7.34" cy="7.34" r="7.34"/></g><g id="path9-3"><path class="cls-2" d="M5.31,3.84H9.37a1.5,1.5,0,0,1,1.47,1.47V9.37a1.5,1.5,0,0,1-1.47,1.47H5.31A1.5,1.5,0,0,1,3.84,9.37V5.31A1.5,1.5,0,0,1,5.31,3.84ZM9.48,5a.14.14,0,0,1,.14.14.14.14,0,0,1-.14.15.15.15,0,0,1-.15-.15A.15.15,0,0,1,9.48,5Zm-2.14.4a2,2,0,1,1-1.95,2A1.95,1.95,0,0,1,7.34,5.39ZM9,7.34A1.67,1.67,0,1,0,7.34,9,1.67,1.67,0,0,0,9,7.34Zm.36-3.22H5.31A1.2,1.2,0,0,0,4.12,5.31V9.37a1.2,1.2,0,0,0,1.19,1.19H9.37a1.2,1.2,0,0,0,1.19-1.19V5.31A1.2,1.2,0,0,0,9.37,4.12Z"/></g></g></g></svg>